inDegrees=yes
name=ik_S56_A12_T02
DataType=double
version=3
OpenSimVersion=4.3-2021-08-27-4bc7ad9
endheader
time	pelvis_tilt	pelvis_list	pelvis_rotation	pelvis_tx	pelvis_ty	pelvis_tz	hip_flexion_r	hip_adduction_r	hip_rotation_r	knee_angle_r	knee_angle_r_beta	ankle_angle_r	subtalar_angle_r	mtp_angle_r	hip_flexion_l	hip_adduction_l	hip_rotation_l	knee_angle_l	knee_angle_l_beta	ankle_angle_l	subtalar_angle_l	mtp_angle_l	lumbar_extension	lumbar_bending	lumbar_rotation	arm_flex_r	arm_add_r	arm_rot_r	elbow_flex_r	pro_sup_r	wrist_flex_r	wrist_dev_r	arm_flex_l	arm_add_l	arm_rot_l	elbow_flex_l	pro_sup_l	wrist_flex_l	wrist_dev_l
0	0	0	0	0	0.9399999999999999	0	0	0	0	0	0	0	0	0	0	0	0	0	0	0	0	0	0	0	0	0	0	0	0	89.99999999963507	0	0	0	0	0	0	89.99999999869995	0	0
0.02	-0.1188549888191671	-0.6494157254247114	35.07324965660676	0	0.9399999999999999	0	1.36027264050669	-0.6416037726644092	-0.4564677323888545	2.121327212942551	0.03702414437800237	0	0	0	1.36027264050669	-0.6416037726644092	-0.4564677323888545	2.121327212942551	0.03702414437800237	0	0	0	-0.3518737821468246	0.1329875419449521	16.70113426477851	5.776499916115457	-5.776828439836805	3.00487186364685	5.95170579625406	117.7679882287136	0	0	1.541661916800011	-6.472302219678397	6.288046975854747	10.1937133270278	104.2268874371375	0	0
0.04	-0.1515609134029144	-0.6291864695282893	35.65868543827546	0	0.9399999999999999	0	5.503000764426267	-2.508895189331654	-1.92531969566551	6.071781695428467	0.1059725820475503	0	0	0	5.503000764426267	-2.508895189331654	-1.92531969566551	6.071781695428467	0.1059725820475503	0	0	0	-0.3531776390571394	0.1288124797921132	16.13032876953359	5.766430229795728	-5.799840689943853	2.989726374492017	6.001582780466115	117.7512308892451	0	0	1.634602567260946	-6.492707572352713	6.444780423152489	10.23357490651549	103.9725660725472	0	0
0.06	-0.1849221074254139	-0.6266967746099775	35.8523955985893	0	0.9399999999999999	0	6.689410615788289	-2.983915972514189	-2.329604389247238	7.166971012887973	0.1250872415698881	0	0	0	6.689410615788289	-2.983915972514189	-2.329604389247238	7.166971012887973	0.1250872415698881	0	0	0	-0.371153100247828	0.1104672053638301	15.92057251133089	5.795160411238499	-5.799545790126514	3.045680570593595	6.057416931348723	117.7595805118819	0	0	1.740828429169783	-6.531128451306446	6.533357707323816	10.30144999079078	103.9085398093023	0	0
0.08	-0.168925419006903	-0.6133177695025235	35.83633503173139	0	0.9399999999999999	0	6.697539384666809	-2.987854029030189	-2.332362651235123	7.177891118705653	0.1252778333710728	0	0	0	6.697539384666809	-2.987854029030189	-2.332362651235123	7.177891118705653	0.1252778333710728	0	0	0	-0.3501600370896416	0.1115990309259073	15.94319106716607	5.755500875364445	-5.780565621627472	3.087169940690828	6.008227000246508	117.6950866880414	0	0	1.75306137406993	-6.584729389122593	6.68572750740215	10.30623069786854	103.8432721989702	0	0
0.1	-0.1799269574996326	-0.6071266363509958	35.81081643810123	0	0.9399999999999999	0	6.704596548869027	-2.991247235172888	-2.334750781331184	7.187383252232162	0.1254435023541493	0	0	0	6.704596548869027	-2.991247235172888	-2.334750781331184	7.187383252232162	0.1254435023541493	0	0	0	-0.3553845661162184	0.1229091322867539	15.95059926952813	5.750037753680885	-5.769989098578222	3.190889538465859	5.979881563481814	117.6272705470673	0	0	1.817734892854652	-6.613445133943221	6.807002979953134	10.3271452697577	103.7548925607688	0	0
0.12	-0.2314505150527219	-0.608319486655302	35.96869456222843	0	0.9399999999999999	0	7.827178858034309	-3.43055237757672	-2.709812077875318	8.253420150154014	0.1440493561706323	0	0	0	7.827178858034309	-3.43055237757672	-2.709812077875318	8.253420150154014	0.1440493561706323	0	0	0	-0.3931604442026645	0.1302854929651476	15.7193498140172	5.836734414266122	-5.818002761961783	3.294481132011921	5.942751795508485	117.5633859292647	0	0	1.882780117908052	-6.58372210448632	6.753951065843069	10.41769358897603	103.7067833954354	0	0
0.14	-0.2438307166841684	-0.6072055850544301	35.93137991972537	0	0.9399999999999999	0	7.830560479036565	-3.432116113497934	-2.710943616276662	8.257895791044227	0.1441274708403034	1.046871199713157e-52	0	0	7.830560479036565	-3.432116113497934	-2.710943616276662	8.257895791044227	0.1441274708403034	1.046871199713157e-52	0	0	-0.4024801835246756	0.1383671755860243	15.72410217393201	5.842376782101335	-5.816538094348875	3.418059361511223	5.94099859528682	117.5662381570286	0	0	1.944743932595943	-6.614920276254664	6.851408700331433	10.41942813599388	103.696036355436	0	0
0.16	-0.2660423788040922	-0.6103061386862664	36.06568476493516	0	0.9399999999999999	0	8.76660149366027	-3.772171867725607	-3.015082671092514	9.130009432759334	0.1593487253397902	0	0	0	8.76660149366027	-3.772171867725607	-3.015082671092514	9.130009432759334	0.1593487253397902	0	0	0	-0.4202608741453038	0.1343407008143307	15.56029698844771	5.889988039351064	-5.81866936235388	3.554854638594901	5.907696739904922	117.383889517831	0	0	2.05347014077599	-6.65242056829447	6.980211171876125	10.40524995900731	103.4995131169023	0	0
0.18	-0.2938988190348732	-0.6122889969492559	36.19241264736423	0	0.9399999999999999	0	9.648921618055999	-4.096269316524344	-3.299200579769403	9.98992505015498	0.1743570841526641	0	0	0	9.648921618055999	-4.096269316524344	-3.299200579769403	9.98992505015498	0.1743570841526641	0	0	0	-0.4393985898742074	0.1256859541361	15.39625244067843	5.915599371757376	-5.832561666089772	3.638513882641303	5.968148465155309	117.3401752058017	0	0	2.151568560535991	-6.670571109289729	7.066447184642787	10.40803308736501	103.4550849893073	0	0
0.2	-0.3161439247028917	-0.6094507108793611	36.13115363710556	0	0.9399999999999999	0	9.653897296378837	-4.098568624855745	-3.300873798792077	9.996251965199002	0.1744675096516762	0	0	0	9.653897296378837	-4.098568624855745	-3.300873798792077	9.996251965199002	0.1744675096516762	0	0	0	-0.4558873775146582	0.1413879291743655	15.37294038518238	5.94988955642415	-5.8595729773851	3.738347173250205	5.975124057652911	117.3480736898029	0	0	2.211386971851125	-6.670221485533305	7.097058740354201	10.40395735479673	103.4258708762407	0	0
0.22	-0.3363982211477077	-0.6078480630543539	36.08485081895059	0	0.9399999999999999	0	9.660339070370064	-4.101558494743403	-3.303044368343942	10.00442657704406	0.174610183543445	0	0	0	9.660339070370064	-4.101558494743403	-3.303044368343942	10.00442657704406	0.174610183543445	0	0	0	-0.4714590811883343	0.1548026380399449	15.35587761540942	5.983141274962232	-5.889512720514731	3.773047667923545	5.981599104411395	117.3443579943561	0	0	2.277374371562075	-6.666262416232036	7.142776052879326	10.40553899708984	103.3647511282488	0	0
0.24	-0.3575460484045002	-0.6104709326809135	36.03752463736706	0	0.9399999999999999	0	9.6692131910726	-4.105685022085185	-3.306037218886738	10.01567522842712	0.1748065095464885	0	0	0	9.6692131910726	-4.105685022085185	-3.306037218886738	10.01567522842712	0.1748065095464885	0	0	0	-0.4902423994976763	0.165275798210342	15.34007893141931	6.018473001796144	-5.916258544972512	3.760417233223014	6.001604936361887	117.3564613909723	0	0	2.360515847949876	-6.667042265825176	7.202330419871492	10.40752201832377	103.2932589662152	0	0
